<svg width="85" height="84" viewBox="0 0 85 84" fill="none" xmlns="http://www.w3.org/2000/svg">
<g clip-path="url(#clip0_206_1198)">
<path d="M42.5201 18.5519C55.5195 18.5519 66.0576 29.09 66.0576 42.0893C66.0576 55.0887 55.5195 65.6268 42.5201 65.6268C29.5207 65.6268 18.9827 55.0887 18.9827 42.0893C18.9827 29.09 29.5207 18.5519 42.5201 18.5519Z" fill="url(#paint0_radial_206_1198)"/>
<path d="M42.5201 69.5497C44.6867 69.5497 46.443 71.306 46.443 73.4726V77.3955C46.443 79.5622 44.6867 81.3184 42.5201 81.3184C40.3535 81.3184 38.5972 79.5622 38.5972 77.3955V73.4726C38.5972 71.306 40.3535 69.5497 42.5201 69.5497ZM67.4855 61.507L70.2594 64.2809C71.7913 65.8127 71.7913 68.2963 70.2594 69.8286C68.7275 71.3605 66.2435 71.3605 64.7116 69.8286L61.9377 67.0547C60.4058 65.5225 60.4058 63.0389 61.9377 61.507C63.4696 59.9747 65.9536 59.9747 67.4855 61.507ZM17.5547 61.507C19.0867 59.9747 21.5705 59.9747 23.1025 61.507C24.5166 62.921 24.6254 65.1463 23.4288 66.6852L23.1025 67.0547L20.3286 69.8286C18.7966 71.3605 16.3127 71.3605 14.7808 69.8286C13.3666 68.4146 13.2578 66.1893 14.4544 64.6504L14.7808 64.2809L17.5547 61.507ZM11.1368 38.1664C13.3034 38.1664 15.0597 39.9227 15.0597 42.0893C15.0597 44.1012 13.5453 45.7593 11.5943 45.9859L11.1368 46.0122H7.21393C5.04738 46.0122 3.29102 44.256 3.29102 42.0893C3.29102 40.0775 4.80543 38.4194 6.75644 38.1928L7.21393 38.1664H11.1368ZM77.8263 38.1664C79.9929 38.1664 81.7492 39.9227 81.7492 42.0893C81.7492 44.256 79.9929 46.0122 77.8263 46.0122H73.9034C71.7368 46.0122 69.9805 44.256 69.9805 42.0893C69.9805 39.9227 71.7368 38.1664 73.9034 38.1664H77.8263ZM14.7809 14.35C16.195 12.9358 18.4202 12.8271 19.9591 14.0236L20.3287 14.35L23.1026 17.1239C24.6346 18.6559 24.6346 21.1397 23.1026 22.6717C21.6884 24.0858 19.4633 24.1946 17.9243 22.9981L17.5548 22.6717L14.7809 19.8978C13.2489 18.3658 13.2489 15.8819 14.7809 14.35ZM70.2594 14.35C71.7913 15.882 71.7913 18.3659 70.2594 19.8979L67.4855 22.6718C65.9532 24.2038 63.4696 24.2038 61.9377 22.6718C60.4055 21.1398 60.4055 18.6559 61.9377 17.1239L64.7116 14.35C66.2435 12.818 68.7271 12.818 70.2594 14.35ZM42.5201 2.86023C44.6867 2.86023 46.443 4.6166 46.443 6.78314V10.7061C46.443 12.8726 44.6867 14.629 42.5201 14.629C40.3535 14.629 38.5972 12.8726 38.5972 10.7061V6.78314C38.5972 4.6166 40.3535 2.86023 42.5201 2.86023Z" fill="url(#paint1_linear_206_1198)"/>
</g>
<defs>
<radialGradient id="paint0_radial_206_1198" cx="0" cy="0" r="1" gradientUnits="userSpaceOnUse" gradientTransform="translate(26.1747 24.4362) rotate(43.0203) scale(54.5474)">
<stop offset="0.193671" stop-color="#FFE475"/>
<stop offset="0.529275" stop-color="#FFB029"/>
<stop offset="0.780467" stop-color="#FF9100"/>
</radialGradient>
<linearGradient id="paint1_linear_206_1198" x1="2.80065" y1="2.36987" x2="82.2396" y2="81.8088" gradientUnits="userSpaceOnUse">
<stop offset="0.166667" stop-color="#FFE475"/>
<stop offset="0.798611" stop-color="#FFBF29"/>
</linearGradient>
<clipPath id="clip0_206_1198">
<rect width="83.6888" height="83.6888" fill="white" transform="translate(0.675781 0.244995)"/>
</clipPath>
</defs>
</svg>
