<svg width="20" height="20" viewBox="0 0 20 20" fill="none" xmlns="http://www.w3.org/2000/svg">
<circle cx="2.06006" cy="14.081" r="1.05409" transform="rotate(-135 2.06006 14.081)" fill="white"/>
<rect x="4.35034" y="13.2826" width="2.10817" height="6.92685" rx="1.05409" transform="rotate(-135 4.35034 13.2826)" fill="white"/>
<rect x="1.90015" y="10.8334" width="2.10817" height="4.51751" rx="1.05409" transform="rotate(-135 1.90015 10.8334)" fill="white"/>
<circle cx="17.9409" cy="5.93546" r="1.05409" transform="rotate(45 17.9409 5.93546)" fill="white"/>
<rect x="15.6497" y="6.7337" width="2.10817" height="6.92685" rx="1.05409" transform="rotate(45 15.6497 6.7337)" fill="white"/>
<rect x="18.0994" y="9.1828" width="2.10817" height="4.51751" rx="1.05409" transform="rotate(45 18.0994 9.1828)" fill="white"/>
<circle cx="14.0801" cy="17.9399" r="1.05409" transform="rotate(135 14.0801 17.9399)" fill="white"/>
<rect x="13.2815" y="15.6513" width="2.10817" height="6.92685" rx="1.05409" transform="rotate(135 13.2815 15.6513)" fill="white"/>
<rect x="10.8323" y="18.1" width="2.10817" height="4.51751" rx="1.05409" transform="rotate(135 10.8323 18.1)" fill="white"/>
<circle cx="5.93479" cy="2.06049" r="1.05409" transform="rotate(-45 5.93479 2.06049)" fill="white"/>
<rect x="6.73315" y="4.34869" width="2.10817" height="6.92685" rx="1.05409" transform="rotate(-45 6.73315 4.34869)" fill="white"/>
<rect x="9.18188" y="1.89948" width="2.10817" height="4.51751" rx="1.05409" transform="rotate(-45 9.18188 1.89948)" fill="white"/>
</svg>
