<svg width="32" height="32" viewBox="0 0 32 32" fill="none" xmlns="http://www.w3.org/2000/svg">
<path opacity="0.4" d="M27.4935 11.2667C26.0935 5.10667 20.7201 2.33333 16.0001 2.33333C16.0001 2.33333 16.0001 2.33333 15.9868 2.33333C11.2801 2.33333 5.89346 5.09333 4.49346 11.2533C2.93346 18.1333 7.14679 23.96 10.9601 27.6267C12.3735 28.9867 14.1868 29.6667 16.0001 29.6667C17.8135 29.6667 19.6268 28.9867 21.0268 27.6267C24.8401 23.96 29.0535 18.1467 27.4935 11.2667Z" fill="#01CD98"/>
<path d="M16 17.9467C18.3196 17.9467 20.2 16.0663 20.2 13.7467C20.2 11.4271 18.3196 9.54667 16 9.54667C13.6805 9.54667 11.8 11.4271 11.8 13.7467C11.8 16.0663 13.6805 17.9467 16 17.9467Z" fill="#051320"/>
</svg>
