<svg width="33" height="32" viewBox="0 0 33 32" fill="none" xmlns="http://www.w3.org/2000/svg">
<g clip-path="url(#clip0_206_980)">
<path d="M16.5 7C21.4706 7 25.5 11.0294 25.5 16C25.5 20.9705 21.4706 25 16.5 25C11.5294 25 7.5 20.9705 7.5 16C7.5 11.0294 11.5294 7 16.5 7Z" fill="url(#paint0_radial_206_980)"/>
<path d="M16.5 26.5C17.3285 26.5 18 27.1716 18 28V29.5C18 30.3285 17.3285 31 16.5 31C15.6715 31 15 30.3285 15 29.5V28C15 27.1716 15.6715 26.5 16.5 26.5ZM26.046 23.4247L27.1067 24.4854C27.6924 25.0711 27.6924 26.0208 27.1067 26.6067C26.5209 27.1924 25.5711 27.1924 24.9854 26.6067L23.9247 25.546C23.339 24.9601 23.339 24.0105 23.9247 23.4247C24.5105 22.8388 25.4603 22.8388 26.046 23.4247ZM6.95397 23.4247C7.53976 22.8388 8.48952 22.8388 9.0753 23.4247C9.61602 23.9654 9.65761 24.8163 9.20008 25.4047L9.0753 25.546L8.01464 26.6067C7.42886 27.1924 6.4791 27.1924 5.89332 26.6067C5.35259 26.066 5.31099 25.2151 5.76854 24.6267L5.89332 24.4854L6.95397 23.4247ZM4.5 14.5C5.32842 14.5 6 15.1715 6 16C6 16.7693 5.42093 17.4033 4.67493 17.4899L4.5 17.5H3C2.17158 17.5 1.5 16.8285 1.5 16C1.5 15.2307 2.07907 14.5967 2.82507 14.5101L3 14.5H4.5ZM30 14.5C30.8285 14.5 31.5 15.1715 31.5 16C31.5 16.8285 30.8285 17.5 30 17.5H28.5C27.6716 17.5 27 16.8285 27 16C27 15.1715 27.6716 14.5 28.5 14.5H30ZM5.89336 5.39332C6.43408 4.8526 7.28494 4.81101 7.87337 5.26854L8.01468 5.39332L9.07535 6.45399C9.66113 7.03977 9.66113 7.98952 9.07535 8.5753C8.53461 9.11602 7.68377 9.15761 7.09533 8.70008L6.95402 8.5753L5.89336 7.51464C5.30757 6.92886 5.30757 5.9791 5.89336 5.39332ZM27.1067 5.39335C27.6924 5.97913 27.6924 6.92889 27.1067 7.51467L26.046 8.57533C25.4601 9.16111 24.5105 9.16111 23.9247 8.57533C23.3388 7.98954 23.3388 7.03979 23.9247 6.454L24.9854 5.39335C25.5711 4.80755 26.5208 4.80755 27.1067 5.39335ZM16.5 1C17.3285 1 18 1.67158 18 2.5V4C18 4.82842 17.3285 5.5 16.5 5.5C15.6715 5.5 15 4.82842 15 4V2.5C15 1.67158 15.6715 1 16.5 1Z" fill="url(#paint1_linear_206_980)"/>
</g>
<defs>
<radialGradient id="paint0_radial_206_980" cx="0" cy="0" r="1" gradientUnits="userSpaceOnUse" gradientTransform="translate(10.25 9.25) rotate(43.0203) scale(20.8572)">
<stop offset="0.193671" stop-color="#FFE475"/>
<stop offset="0.529275" stop-color="#FFB029"/>
<stop offset="0.780467" stop-color="#FF9100"/>
</radialGradient>
<linearGradient id="paint1_linear_206_980" x1="1.3125" y1="0.812501" x2="31.6875" y2="31.1875" gradientUnits="userSpaceOnUse">
<stop offset="0.166667" stop-color="#FFE475"/>
<stop offset="0.798611" stop-color="#FFBF29"/>
</linearGradient>
<clipPath id="clip0_206_980">
<rect width="32" height="32" fill="white" transform="translate(0.5)"/>
</clipPath>
</defs>
</svg>
