<svg width="200" height="200" viewBox="0 0 200 200" fill="none" xmlns="http://www.w3.org/2000/svg">
<g clip-path="url(#clip0_206_1447)">
<path d="M100 43.75C131.066 43.75 156.25 68.934 156.25 100C156.25 131.066 131.066 156.25 100 156.25C68.934 156.25 43.75 131.066 43.75 100C43.75 68.934 68.934 43.75 100 43.75Z" fill="url(#paint0_radial_206_1447)"/>
<path d="M100 165.625C105.178 165.625 109.375 169.822 109.375 175V184.375C109.375 189.553 105.178 193.75 100 193.75C94.8222 193.75 90.625 189.553 90.625 184.375V175C90.625 169.822 94.8222 165.625 100 165.625ZM159.663 146.404L166.292 153.033C169.952 156.694 169.952 162.63 166.292 166.292C162.631 169.952 156.694 169.952 153.033 166.292L146.404 159.663C142.743 156.001 142.743 150.065 146.404 146.404C150.065 142.743 156.002 142.743 159.663 146.404ZM40.3373 146.404C43.9985 142.743 49.9345 142.743 53.5956 146.404C56.9751 149.784 57.2351 155.102 54.3755 158.779L53.5956 159.663L46.9665 166.292C43.3053 169.952 37.3694 169.952 33.7083 166.292C30.3287 162.912 30.0687 157.594 32.9283 153.917L33.7083 153.033L40.3373 146.404ZM25 90.625C30.1776 90.625 34.375 94.8222 34.375 100C34.375 104.808 30.7558 108.77 26.0933 109.312L25 109.375H15.625C10.4474 109.375 6.25 105.178 6.25 100C6.25 95.192 9.86916 91.2296 14.5317 90.6881L15.625 90.625H25ZM184.375 90.625C189.553 90.625 193.75 94.8222 193.75 100C193.75 105.178 189.553 109.375 184.375 109.375H175C169.822 109.375 165.625 105.178 165.625 100C165.625 94.8222 169.822 90.625 175 90.625H184.375ZM33.7085 33.7083C37.088 30.3288 42.4059 30.0688 46.0836 32.9284L46.9668 33.7083L53.5959 40.3374C57.257 43.9985 57.257 49.9345 53.5959 53.5956C50.2163 56.9751 44.8986 57.2351 41.2208 54.3755L40.3376 53.5956L33.7085 46.9665C30.0473 43.3053 30.0473 37.3694 33.7085 33.7083ZM166.292 33.7084C169.952 37.3696 169.952 43.3055 166.292 46.9667L159.663 53.5958C156.001 57.2569 150.065 57.2569 146.404 53.5958C142.743 49.9346 142.743 43.9987 146.404 40.3375L153.033 33.7084C156.694 30.0472 162.63 30.0472 166.292 33.7084ZM100 6.25C105.178 6.25 109.375 10.4474 109.375 15.625V25C109.375 30.1776 105.178 34.375 100 34.375C94.8222 34.375 90.625 30.1776 90.625 25V15.625C90.625 10.4474 94.8222 6.25 100 6.25Z" fill="url(#paint1_linear_206_1447)"/>
</g>
<defs>
<radialGradient id="paint0_radial_206_1447" cx="0" cy="0" r="1" gradientUnits="userSpaceOnUse" gradientTransform="translate(60.9375 57.8125) rotate(43.0203) scale(130.358 130.358)">
<stop offset="0.193671" stop-color="#FFE475"/>
<stop offset="0.529275" stop-color="#FFB029"/>
<stop offset="0.780467" stop-color="#FF9100"/>
</radialGradient>
<linearGradient id="paint1_linear_206_1447" x1="5.07812" y1="5.07813" x2="194.922" y2="194.922" gradientUnits="userSpaceOnUse">
<stop offset="0.166667" stop-color="#FFE475"/>
<stop offset="0.798611" stop-color="#FFBF29"/>
</linearGradient>
<clipPath id="clip0_206_1447">
<rect width="200" height="200" fill="white"/>
</clipPath>
</defs>
</svg>
